<svg width="321" height="75" viewBox="0 0 321 75" fill="none" xmlns="http://www.w3.org/2000/svg">
<path d="M93.6244 44.0445H88.8903V46.1778H104.671V44.0445H99.9367V41.2H112.561V44.0445H107.827V51.1555H112.561V54H99.9367V51.1555H104.671V49.0222H88.8903V51.1555H93.6244V54H81V51.1555H85.7341V44.0445H81V41.2H93.6244V44.0445ZM128.342 44.0445H123.608V51.1555H139.388V44.0445H134.654V41.2H147.278V44.0445H142.544V54H115.717V51.1555H120.451V44.0445H115.717V41.2H128.342V44.0445ZM177.258 42.8402L177.215 42.9067H177.262V47.1409L178.835 47.9598L178.792 48.0267H178.84V52.2933H178.806L178.835 52.3389L175.684 53.9787V54H150.435V51.1555H155.169V44.0445H150.435V41.2H174.105L177.258 42.8402ZM207.24 42.8399L207.197 42.9067H207.245V45.4667H204.089V44.4844L203.243 44.0445H185.993L185.152 44.4821V45.7187L186.034 46.1778H204.089L207.24 47.8178L207.197 47.8843H207.245V52.2933H207.211L207.24 52.3389L204.089 53.9788V54H185.152V53.9717L185.148 53.9787L181.996 52.3389L182.025 52.2933H181.996V49.7333H185.152V50.6965L186.034 51.1555H203.202L204.089 50.6944V49.4621L203.243 49.0222H185.152V48.9938L185.148 49.001L181.996 47.3612L182.025 47.3157H181.996V42.9067H182.038L181.996 42.8399L185.148 41.2L185.152 41.207V41.2H204.089L207.24 42.8399ZM158.325 51.1555H174.797L175.684 50.6944V49.6044L174.565 49.0222H158.325V51.1555ZM158.325 46.1778H173.219L174.105 45.7166V44.4846L173.26 44.0445H158.325V46.1778ZM93.6315 24.8445H88.8948V26.9778H104.684V24.8445H99.9473V22H112.579V24.8445H107.842V31.9555H112.579V34.8H99.9473V31.9555H104.684V29.8222H88.8948V31.9555H93.6315V34.8H81V31.9555H85.7368V24.8445H81V22H93.6315V24.8445ZM142.579 26.2667H139.421V24.8445H123.632V26.9778H134.684V29.8222H123.632V31.9555H139.421V30.5333H142.579V34.8H115.737V31.9555H120.474V24.8445H115.737V22H142.579V26.2667ZM172.575 23.6399L172.531 23.7067H172.579V28.1156H172.545L172.575 28.1612L169.66 29.6765L174.062 31.9555H177.316V34.8H164.684V31.9555H168.517L164.397 29.8222H153.632V31.9555H158.368V34.8H145.737V31.9555H150.474V24.8445H145.737V22H169.421L172.575 23.6399ZM199.421 24.8445H191.526V31.9555H199.421V34.8H180.474V31.9555H188.368V24.8445H180.474V22H199.421V24.8445ZM227.842 26.2667H224.684V24.8445H216.79V31.9555H221.526V34.8H208.895V31.9555H213.632V24.8445H205.737V26.2667H202.579V22H227.842V26.2667ZM254.684 24.8445H251.032L255.591 31.9555H259.42V34.8H246.79V31.9555H251.943L251.032 30.5333H236.11L235.198 31.9555H240.474V34.8H227.842V31.9555H231.552L236.11 24.8445H232.579V22H254.684V24.8445ZM290.995 23.6399L290.953 23.7067H291V26.2667H287.842V25.2844L286.997 24.8445H270.473V31.9555H286.954L287.842 31.4943V30.5333H275.211V27.6888H291V33.0933H290.966L290.995 33.1388L287.842 34.7789V34.8H262.58V31.9555H267.316V24.8445H262.58V22H287.842L290.995 23.6399ZM321 26.2667H317.842V24.8445H302.053V26.9778H313.105V29.8222H302.053V31.9555H317.842V30.5333H321V34.8H294.158V31.9555H298.895V24.8445H294.158V22H321V26.2667ZM237.933 27.6888H249.208L247.385 24.8445H239.757L237.933 27.6888ZM153.632 26.9778H168.534L169.421 26.5165V25.2844L168.575 24.8445H153.632V26.9778Z" fill="#E0E1D2"></path>
<path d="M22.7935 4.11094L25.0873 8.15063L49.8625 8.1673L52.1619 4.10854L74.9093 0.00301183L71.0045 23.1802L66.9865 25.5581L66.9876 49.4012L70.9866 51.7566L75 74.9969L52.1602 70.8704L49.8598 66.7888L25.0945 66.793L22.7845 70.8667L0.000803599 75L3.99027 51.8656L7.95584 49.5116V25.4637L3.9957 23.1231L0 0L22.7935 4.11094ZM54.7916 7.8123L52.2604 12.2811L22.6908 12.2614L20.1663 7.81551L5.05504 5.09019L7.7264 20.5505L12.0704 23.1181L12.0703 51.8518L7.72238 54.4326L5.05443 69.9036L20.1547 67.1641L22.6972 62.6812L52.2645 62.6765L54.7955 67.1676L69.9452 69.9046L67.256 54.3323L62.8733 51.7509L62.8721 23.214L67.2643 20.6147L69.8798 5.08921L54.7916 7.8123ZM33.3857 32.3584H27.214V35.4425H40.3911L45.7357 32.3584H41.6145V28.2462H58.0722V32.3584H52.936L43.9947 37.5175L52.8699 42.6388H58.0722V46.7509H41.6145V42.6388H45.6697L40.3802 39.5865L40.3987 39.5546H27.214V42.6388H33.3857V46.7509H16.928V42.6388H23.0996V32.3584H16.928V28.2462H33.3857V32.3584Z" fill="#E0E1D2"></path>
</svg>