<svg width="1520" height="90" viewBox="0 0 1520 90" fill="none" xmlns="http://www.w3.org/2000/svg">
<path d="M80 20H50V35H150V20H120V0H200V20H170V70H200V90H120V70H150V55H50V70H80V90H0V70H30V20H0V0H80V20ZM390 30H370V20H270V35H340V55H270V70H370V60H390V90H220V70H250V20H220V0H390V30ZM579.972 11.5303L579.7 12H580V43H579.787L579.972 43.3203L561.515 53.9756L589.394 70H610V90H530V70H554.276L528.181 55H460V70H490V90H410V70H440V20H410V0H560L579.972 11.5303ZM750 20H700V70H750V90H630V70H680V20H630V0H750V20ZM930 30H910V20H860V70H890V90H810V70H840V20H790V30H770V0H930V30ZM1100 20H1076.87L1105.74 70H1130V90H1050V70H1082.64L1076.87 60H982.363L976.59 70H1010V90H930V70H953.496L982.363 20H960V0H1100V20ZM1329.97 11.5303L1329.7 12H1330V30H1310V23.0928L1304.64 20H1200V70H1304.38L1310 66.7568V60H1230V40H1330V78H1329.79L1329.97 78.3203L1310 89.8516V90H1150V70H1180V20H1150V0H1310L1329.97 11.5303ZM1520 30H1500V20H1400V35H1470V55H1400V70H1500V60H1520V90H1350V70H1380V20H1350V0H1520V30ZM993.91 40H1065.32L1053.77 20H1005.46L993.91 40ZM460 35H554.383L560 31.7568V23.0928L554.642 20H460V35Z" fill="black"></path>
</svg>