<svg width="1422" height="210" viewBox="0 0 1422 210" fill="none" xmlns="http://www.w3.org/2000/svg">
<g clip-path="url(#clip0_55_2)">
<path d="M74.7998 144.667H46.75V158.667H140.25V144.667H112.2V126H187V144.667H158.95V191.333H187V210H112.2V191.333H140.25V177.333H46.75V191.333H74.7998V210H0V191.333H28.0498V144.667H0V126H74.7998V144.667ZM280.5 144.667H252.45V191.333H345.95V144.667H317.9V126H392.7V144.667H364.65V210H205.7V191.333H233.75V144.667H205.7V126H280.5V144.667ZM570.326 136.764L570.073 137.2H570.35V164.987L579.674 170.361L579.42 170.8H579.7V198.8H579.501L579.674 199.099L561 209.86V210H411.4V191.333H439.45V144.667H411.4V126H551.65L570.326 136.764ZM747.974 136.762L747.72 137.2H748V154H729.3V147.554L724.29 144.667H622.084L617.1 147.539V155.654L622.326 158.667H729.3L747.974 169.429L747.72 169.866H748V198.8H747.801L747.974 199.099L729.3 209.861V210H617.1V209.814L617.074 209.86L598.4 199.099L598.573 198.8H598.4V182H617.1V188.321L622.326 191.333H724.048L729.3 188.307V180.22L724.29 177.333H617.1V177.147L617.074 177.194L598.4 166.433L598.573 166.134H598.4V137.2H598.653L598.4 136.762L617.074 126L617.1 126.046V126H729.3L747.974 136.762ZM458.15 191.333H555.748L561 188.307V181.154L554.37 177.333H458.15V191.333ZM458.15 158.667H546.398L551.65 155.64V147.555L546.641 144.667H458.15V158.667ZM74.8418 18.667H46.7764V32.667H140.329V18.667H112.263V0H187.105V18.667H159.039V65.333H187.105V84H112.263V65.333H140.329V51.333H46.7764V65.333H74.8418V84H0V65.333H28.0654V18.667H0V0H74.8418V18.667ZM364.855 28H346.145V18.667H252.592V32.667H318.079V51.333H252.592V65.333H346.145V56H364.855V84H205.815V65.333H233.882V18.667H205.815V0H364.855V28ZM542.579 10.7617L542.324 11.2002H542.605V40.1338H542.406L542.579 40.4326L525.312 50.377L551.394 65.333H570.671V84H495.829V65.333H518.54L494.127 51.333H430.342V65.333H458.408V84H383.565V65.333H411.632V18.667H383.565V0H523.895L542.579 10.7617ZM701.645 18.667H654.868V65.333H701.645V84H589.382V65.333H636.158V18.667H589.382V0H701.645V18.667ZM870.039 28H851.329V18.667H804.553V65.333H832.618V84H757.776V65.333H785.842V18.667H739.065V28H720.355V0H870.039V28ZM1029.08 18.667H1007.44L1034.45 65.333H1057.14V84H982.303V65.333H1012.84L1007.44 56H919.026L913.626 65.333H944.882V84H870.039V65.333H892.021L919.026 18.667H898.105V0H1029.08V18.667ZM1244.22 10.7617L1243.97 11.2002H1244.25V28H1225.54V21.5537L1220.53 18.667H1122.63V65.333H1220.28L1225.54 62.3066V56H1150.7V37.333H1244.25V72.7998H1244.05L1244.22 73.0986L1225.54 83.8613V84H1075.86V65.333H1103.92V18.667H1075.86V0H1225.54L1244.22 10.7617ZM1422 28H1403.29V18.667H1309.74V32.667H1375.22V51.333H1309.74V65.333H1403.29V56H1422V84H1262.96V65.333H1291.03V18.667H1262.96V0H1422V28ZM929.829 37.333H996.635L985.829 18.667H940.635L929.829 37.333ZM430.342 32.667H518.64L523.895 29.6396V21.5537L518.882 18.667H430.342V32.667Z" fill="white"></path>
</g>
<defs>
<clipPath id="clip0_55_2">
<rect width="1422" height="210" fill="white"></rect>
</clipPath>
</defs>
</svg>