<svg width="800" height="90" viewBox="0 0 800 90" fill="none" xmlns="http://www.w3.org/2000/svg">
<path d="M80 20H50V35H150V20H120V0H200V20H170V70H200V90H120V70H150V55H50V70H80V90H0V70H30V20H0V0H80V20ZM300 20H270V70H370V20H340V0H420V20H390V90H220V70H250V20H220V0H300V20ZM609.975 11.5322L609.704 12H610V41.7725L619.972 47.5303L619.7 48H620V78H619.787L619.972 78.3203L600 89.8506V90H440V70H470V20H440V0H590L609.975 11.5322ZM799.972 11.5303L799.7 12H800V30H780V23.0928L774.642 20H665.33L660 23.0771V31.7725L665.589 35H780L799.972 46.5303L799.7 47H800V78H799.787L799.972 78.3203L780 89.8516V90H660V89.8008L659.972 89.8506L640 78.3203L640.185 78H640V60H660V66.7725L665.589 70H774.383L780 66.7568V58.0928L774.642 55H660V54.8008L659.972 54.8506L640 43.3203L640.185 43H640V12H640.271L640 11.5303L659.972 0L660 0.0488281V0H780L799.972 11.5303ZM490 70H594.383L600 66.7568V59.0938L592.909 55H490V70ZM490 35H584.383L590 31.7568V23.0938L584.642 20H490V35Z" fill="black"></path>
</svg>