<svg width="365" height="365" viewBox="0 0 365 365" fill="none" xmlns="http://www.w3.org/2000/svg">
<path d="M110.798 19.9941L121.948 39.6416L242.379 39.7227L253.556 19.9824L364.13 0.0146484L345.149 112.74L325.618 124.305L325.623 240.269L345.062 251.725L364.571 364.757L253.548 344.687L242.366 324.836L121.983 324.856L110.754 344.669L0.00390625 364.772L19.3965 252.255L38.6729 240.806V123.846L19.4229 112.462L0 0L110.798 19.9941ZM266.339 37.9961L254.035 59.7305L110.299 59.6348L98.0273 38.0117L24.5723 24.7568L37.5576 99.9502L58.6738 112.438L58.6729 252.188L37.5381 264.74L24.5693 339.985L97.9707 326.661L110.33 304.858L254.055 304.835L266.358 326.678L340 339.99L326.928 264.252L305.624 251.697L305.618 112.904L326.968 100.262L339.682 24.752L266.339 37.9961ZM162.286 157.379H132.286V172.379H196.339L222.319 157.379H202.286V137.379H282.286V157.379H257.319L213.856 182.471L256.998 207.379H282.286V227.379H202.286V207.379H221.998L196.286 192.534L196.376 192.379H132.286V207.379H162.286V227.379H82.2861V207.379H112.286V157.379H82.2861V137.379H162.286V157.379Z" fill="white"></path>
</svg>